<?xml version="1.0" encoding="UTF-8"?>
<svg id="Layer_1" data-name="Layer 1" xmlns="http://www.w3.org/2000/svg" viewBox="0 0 18.14 17.63">
  <defs>
    <style>
      .cls-1 {
        fill: #e13c3d;
      }

      .cls-2 {
        fill: #d3d3d3;
      }
    </style>
  </defs>
  <g>
    <g>
      <path class="cls-2" d="M3.44,11.56h0c1.28,0,2.94-.82,4.09-1.51-.1-.22-.16-.47-.16-.73,0-.32.09-.62.25-.88-1.27-1.11-2.99-2.91-2.99-4.47,0-.08,0-.16,0-.24-.21-.04-.43-.05-.65-.05-1.73,0-3.25,1.11-3.79,2.75-.33,1.01-.24,2.09.24,3.04.48.95,1.31,1.65,2.32,1.98.2.06.43.1.68.1Z"/>
      <path class="cls-2" d="M7.9,8.09c.3-.29.71-.46,1.17-.46.13,0,.26.02.38.05.67-1.55,1.84-3.74,3.32-4.22.08-.02.15-.05.23-.07-.29-1.94-1.95-3.38-3.94-3.38-2.2,0-3.98,1.79-3.98,3.98,0,1.37,1.61,3.05,2.82,4.11Z"/>
      <path class="cls-2" d="M10.74,9.64c-.11.57-.49,1.03-1.01,1.25.37,1.64.71,4.11-.21,5.37-.05.06-.1.13-.15.19.74.75,1.77,1.18,2.84,1.18h0c.84,0,1.65-.26,2.34-.76.86-.63,1.43-1.55,1.59-2.6.17-1.05-.09-2.1-.71-2.97-.81-1.11-3.09-1.51-4.69-1.66Z"/>
      <path class="cls-2" d="M9.28,11.01c-.07,0-.14.02-.22.02-.51,0-.97-.23-1.28-.59-1.2.72-2.94,1.58-4.35,1.58-.3,0-.58-.04-.82-.12-.08-.02-.15-.05-.23-.08-.91,1.74-.41,3.88,1.2,5.05.69.5,1.49.76,2.34.76,1.27,0,2.48-.61,3.23-1.64.81-1.11.49-3.41.13-4.98Z"/>
      <path class="cls-2" d="M17.94,6.44c-.54-1.65-2.06-2.75-3.79-2.75-.42,0-.83.07-1.23.2-1.31.42-2.4,2.47-3.03,3.95.49.27.83.77.88,1.35,1.68.16,4.13.6,5.04,1.86.05.06.09.13.14.2,1.76-.88,2.61-2.9,2-4.79Z"/>
    </g>
    <path class="cls-2" d="M10.45,9.33c0,.76-.62,1.38-1.38,1.38s-1.38-.62-1.38-1.38.62-1.38,1.38-1.38,1.38.62,1.38,1.38Z"/>
  </g>
  <g>
    <g>
      <path class="cls-1" d="M3.44,11.56h0c1.28,0,2.94-.82,4.09-1.51-.1-.22-.16-.47-.16-.73,0-.32.09-.62.25-.88-1.27-1.11-2.99-2.91-2.99-4.47,0-.08,0-.16,0-.24-.21-.04-.43-.05-.65-.05-1.73,0-3.25,1.11-3.79,2.75-.33,1.01-.24,2.09.24,3.04.48.95,1.31,1.65,2.32,1.98.2.06.43.1.68.1Z"/>
      <path class="cls-1" d="M7.9,8.09c.3-.29.71-.46,1.17-.46.13,0,.26.02.38.05.67-1.55,1.84-3.74,3.32-4.22.08-.02.15-.05.23-.07-.29-1.94-1.95-3.38-3.94-3.38-2.2,0-3.98,1.79-3.98,3.98,0,1.37,1.61,3.05,2.82,4.11Z"/>
      <path class="cls-1" d="M10.74,9.64c-.11.57-.49,1.03-1.01,1.25.37,1.64.71,4.11-.21,5.37-.05.06-.1.13-.15.19.74.75,1.77,1.18,2.84,1.18h0c.84,0,1.65-.26,2.34-.76.86-.63,1.43-1.55,1.59-2.6.17-1.05-.09-2.1-.71-2.97-.81-1.11-3.09-1.51-4.69-1.66Z"/>
      <path class="cls-1" d="M9.28,11.01c-.07,0-.14.02-.22.02-.51,0-.97-.23-1.28-.59-1.2.72-2.94,1.58-4.35,1.58-.3,0-.58-.04-.82-.12-.08-.02-.15-.05-.23-.08-.91,1.74-.41,3.88,1.2,5.05.69.5,1.49.76,2.34.76,1.27,0,2.48-.61,3.23-1.64.81-1.11.49-3.41.13-4.98Z"/>
      <path class="cls-1" d="M17.94,6.44c-.54-1.65-2.06-2.75-3.79-2.75-.42,0-.83.07-1.23.2-1.31.42-2.4,2.47-3.03,3.95.49.27.83.77.88,1.35,1.68.16,4.13.6,5.04,1.86.05.06.09.13.14.2,1.76-.88,2.61-2.9,2-4.79Z"/>
    </g>
    <path class="cls-1" d="M10.45,9.33c0,.76-.62,1.38-1.38,1.38s-1.38-.62-1.38-1.38.62-1.38,1.38-1.38,1.38.62,1.38,1.38Z"/>
  </g>
</svg>