<?xml version="1.0" encoding="UTF-8"?>
<svg id="Layer_1" data-name="Layer 1" xmlns="http://www.w3.org/2000/svg" viewBox="0 0 200 200">
  <defs>
    <style>
      .cls-1 {
        fill: #c4212c;
      }

      .cls-2 {
        fill: #412d2f;
      }

      .cls-3 {
        fill: #a53534;
      }

      .cls-4 {
        fill: #fcf7bc;
      }
    </style>
  </defs>
  <rect class="cls-3" width="200" height="200"/>
  <g>
    <circle class="cls-1" cx="100" cy="100" r="94.56"/>
    <path class="cls-2" d="M100,195c-25.38,0-49.23-9.88-67.18-27.82C14.88,149.23,5,125.38,5,100s9.88-49.23,27.82-67.18C50.77,14.88,74.62,5,100,5s49.23,9.88,67.18,27.82c17.94,17.94,27.82,41.8,27.82,67.18s-9.88,49.23-27.82,67.18c-17.94,17.94-41.8,27.82-67.18,27.82ZM100,5.88C48.1,5.88,5.88,48.1,5.88,100s42.22,94.12,94.12,94.12,94.12-42.22,94.12-94.12S151.9,5.88,100,5.88Z"/>
    <circle class="cls-2" cx="100" cy="100" r="85.33" transform="translate(-41.42 100) rotate(-45)"/>
    <circle class="cls-4" cx="100" cy="100" r="84.36"/>
    <circle class="cls-2" cx="100" cy="100" r="41.44"/>
    <path class="cls-1" d="M127.53,100c0,15.21-12.33,27.53-27.53,27.53s-27.53-12.33-27.53-27.53,12.33-27.53,27.53-27.53c15.21,0,27.53,12.33,27.53,27.53Z"/>
    <polygon class="cls-2" points="191.71 75.91 191.49 75.06 101.55 99.16 167.39 33.32 166.77 32.7 100.93 98.53 125.03 8.6 124.18 8.37 100.08 98.31 75.98 8.37 75.13 8.6 99.23 98.53 33.39 32.7 32.77 33.32 98.61 99.16 8.67 75.06 8.44 75.91 98.38 100.01 8.44 124.11 8.67 124.95 98.61 100.86 32.77 166.69 33.39 167.32 99.23 101.48 75.13 191.41 75.98 191.64 100.08 101.71 124.18 191.64 125.03 191.41 100.93 101.48 166.77 167.32 167.39 166.69 101.55 100.86 191.49 124.95 191.71 124.11 101.78 100.01 191.71 75.91"/>
    <g>
      <path class="cls-4" d="M98.73,67.93c-.02.19-.02.45,0,.6-1.52.29-1.77.35-1.93.44-.04-.16-.17-.46-.27-.59.13-.08.29-.22.29-.53v-2.54h.69v2.82l1.22-.2ZM102.42,65.05h-5.67v-2.78c.73-.09,1.58-.25,2.13-.42l.36.55c-.51.14-1.17.26-1.77.32v.56h1.72v.56h-1.72v.62h4.24v-.6h-1.73v-.57h1.73v-.53h-1.82v-.58h2.53v2.85h0ZM98.07,66.68c.29.16.67.41.86.56l-.38.44c-.19-.16-.56-.42-.86-.6l.37-.39ZM98.13,65.49c.27.16.67.41.86.56l-.38.42c-.2-.16-.57-.43-.86-.61l.38-.38ZM101.25,67.88c-.02.18-.02.43,0,.58-1.69.33-1.96.39-2.13.48-.04-.16-.16-.43-.26-.56.13-.07.27-.2.27-.5v-2.57h.67v2.82l1.44-.24ZM100.31,66.69c.31.18.73.45.93.63l-.38.43c-.2-.18-.61-.46-.93-.67l.38-.39ZM100.87,66.51c-.2-.17-.59-.45-.89-.63l.35-.39c.3.16.7.42.9.58l-.37.44ZM102.06,65.27c-.03,2.08.16,3.04.46,3.04.11,0,.16-.16.19-.67.13.12.33.24.49.29-.06.85-.27,1.07-.73,1.07-.86,0-1.09-1.33-1.11-3.73h.71Z"/>
      <path class="cls-4" d="M119.52,72.46l-2.63-1.52-1.33,2.3-.67-.38,1.33-2.3-2.79-1.61.36-.63,2.79,1.61.86-1.49-1.56-.9c-.45.29-.89.53-1.29.69-.08-.17-.29-.51-.41-.67.85-.25,1.8-.92,2.56-1.7l.58.51c-.26.26-.53.5-.81.72l1.28.74.68-1.18.67.38-.68,1.18,2.24,1.29-.36.62-2.24-1.29-.86,1.49,2.63,1.52-.36.62Z"/>
      <path class="cls-4" d="M128.43,80.65c-.91.53-2.23,1.14-3.4.94.06-.17.11-.55.11-.74,1.07.18,2.14-.36,2.94-.83l1.91-1.1,1.15,2,1.36-.79.36.62-.46.27,1.27,2.2-.47.27-1.27-2.2-.44.25,1.32,2.28.09.09.14.5c-.44.09-.95.19-1.3.22l-.18-.59c.17-.03.39-.07.61-.12l-2.34-4.06-1.4.81ZM128.52,86.2c.11.19.24.16,1.02-.25-.02.18.03.46.07.64-.96.48-1.27.46-1.55-.04l-.46-.79c-.34-.6-.27-.84.26-1.15l.84-.48-.67-1.15c-1,.5-1.62.48-2.47-.44.12-.12.26-.4.31-.59.8.91,1.22.79,2.33.16l1.34,2.32-1.33.77c-.18.1-.18.15-.07.35l.38.65ZM129.2,83.21c-.45-.78-.41-1.06.14-1.38l.15-.09-.67-.92.44-.33.71.97.58-.33.34.6-.52.3,1.12,1.57-.43.32-1.17-1.62-.2.12c-.18.11-.17.18.04.55l.71,1.23c.15.26.24.28.66.08,0,.18.05.45.11.63-.64.28-.91.2-1.23-.37l-.77-1.34Z"/>
      <path class="cls-4" d="M131.21,102.2c0,.33.13.39.92.42-.12.16-.23.46-.27.66-1.04-.09-1.3-.3-1.3-1.02v-1.34c0-.88.21-1.09.93-1.09h1.62v-.09c-1.17-.42-2.09-1.29-2.61-3.24.19-.07.46-.25.62-.4.41,1.66,1.11,2.45,1.99,2.84v-2.05h1.89c-.1-.13-.2-.25-.29-.39.16-.11.42-.34.53-.51.71,1.09,1.69,1.85,2.5,2.26l-.14.78c-.15-.08-.29-.16-.44-.26v1.77l.03.12-.33.5c-.36-.2-.78-.49-1.14-.79v2.28h-2.61v-2.09h-1.61c-.25,0-.29.07-.29.45v1.2h0ZM133.06,101.38c-.3.38-.73.87-1.04,1.1l-.44-.5c.31-.21.78-.69,1.1-1.08l.38.49ZM133.75,99.16c.42.1.86.15,1.33.19v-1.75h-1.33v1.56ZM135.08,101.89v-1.78c-.46-.04-.9-.09-1.33-.18v1.96h1.33ZM136.54,98.36c-.27-.2-.56-.44-.82-.69v1.85c.24.2.55.42.82.6v-1.76Z"/>
      <path class="cls-4" d="M125.92,118.52c-.15.26-.04.39.58.8-.19.08-.45.27-.59.42-.81-.56-.96-.89-.6-1.5l.67-1.17c.37-.65.64-.79,1.19-.55-.04-.44-.03-.89,0-1.33.2,0,.52-.07.75-.14-.07.62-.08,1.26,0,1.89l2.5,1.44.38-.67c-1.69-1.33-2.66-2.64-2.75-4.47.19,0,.61-.1.82-.18-.01,1.65.83,2.83,2.32,3.99l1.07-1.85.59.34-1.11,1.92c.46.33.96.66,1.51,1l-.41.64c-.53-.33-1.02-.66-1.48-.99l-1.99,3.44-.59-.34,1.27-2.2-1.97-1.14c.18.79.49,1.57.92,2.24l-.58.43c-.58-.96-.95-2.04-1.15-3.14l-.22-.13c-.27-.16-.35-.14-.53.18l-.6,1.05ZM130.17,120.44c.42-.11,1.16-.4,1.7-.63l.1.61c-.51.25-1.24.56-1.65.68l-.14-.66Z"/>
      <path class="cls-4" d="M112.07,128.96c-.29.16-.24.36.21,1.22-.19-.03-.49.02-.67.07-.52-1.06-.53-1.44.09-1.8l1.11-.64c.7-.4,1-.32,1.39.36l1.79,3.1-.59.34-.83-1.43c-.38.57-.79,1.27-1.01,1.79l-.66-.18c.36-.71.9-1.55,1.35-2.18l-.64-1.1c-.16-.28-.24-.29-.56-.11l-.99.57ZM114.21,133.13l2.17-1.25-.42-.73.57-.33.73,1.26-1.49.86c.24.2.59.45.89.62l-.47.51c-.33-.19-.74-.45-.97-.63l.29-.35-1.6.92-.73-1.26.6-.35.42.73ZM115.89,128.82c-.56-.4-1.17-.98-1.51-1.41l.39-.45c.1.13.22.27.36.42.74-.61,1.5-1.23,2.09-1.69l.44.55c-.29.22-.66.5-1.05.8l.76,1.31.43-.25-.17-.29.5-.29,1.61,2.79-.92.53.69,1.2-.56.33-.69-1.2-.94.54-1.44-2.5.94-.54-.71-1.24-.5.39c.22.2.45.4.67.56l-.37.42ZM117.52,130.92l.48-.28-.84-1.46-.48.28.84,1.46ZM118.11,128.64l-.48.27.84,1.46.48-.27-.84-1.46Z"/>
      <path class="cls-4" d="M97.21,134.57s0-.22.02-.32c.17-2.03.35-2.85.67-3.16.18-.2.38-.26.68-.28.27-.02.73-.02,1.22,0,0,.2.1.5.24.7-.49-.05-.97-.05-1.17-.05-.16,0-.27,0-.35.09-.22.19-.38.86-.52,2.34h4.95c-.1.64-.21,1.69-.27,2.48l-.72-.05c.04-.54.1-1.18.17-1.74h-2.85c-.09.74-.19,1.61-.24,2.28h4.34v.71h-4.46l-.13.03-.54-.05c.06-.85.19-1.98.31-2.96h-1.35ZM98.87,132.34h5.1v.7h-5.1v-.7Z"/>
      <path class="cls-4" d="M81.78,126.94l2.69,1.55.87-1.51.67.38-.87,1.51,2.66,1.54-.35.61-2.66-1.54-.52.9,2,1.15-.35.6-2-1.15-.49.86,2.32,1.34-.35.61-1.32-.76c-.04.33-.06.84-.03,1.24l-.69-.12c-.04-.44-.06-.99-.01-1.33l.49.08-1.92-1.11c-.38.24-.86.6-1.17.87l-.58-.56c.37-.24.76-.49,1.11-.68l-1.24-.72.35-.61,2.38,1.37.49-.86-1.99-1.15.35-.6,1.99,1.15.52-.9-2.69-1.55.35-.61Z"/>
      <path class="cls-4" d="M67.81,116.61c-.25.11-.53.23-.77.34l.81,1.41-.53.31-.87-1.5-.09-.09-.2-.45c.42-.21.9-.42,1.31-.6l-.35-.6.53-.31,1.7,2.95-.53.31-1.02-1.77ZM67.31,118.95c.51-.11,1.06-.19,1.61-.22l4.76-2.75.34.58-3.82,2.2c.23.03.44.07.64.13-.07.14-.18.38-.23.57.35-.28.74-.53,1.16-.77.94-.54,1.92-1.04,2.43-.98.17.02.31.1.43.24.16.17.3.41.45.68-.18.11-.36.3-.47.5-.14-.29-.27-.51-.35-.63-.06-.08-.13-.13-.22-.14-.28-.03-1.14.4-1.97.87l-.08.05c.57.03,1.15.12,1.59.28-.11.15-.27.43-.33.61-.56-.25-1.45-.37-2.14-.3-.26.19-.49.4-.71.64.4.08.79.2,1.11.33-.12.14-.3.43-.39.61-.31-.16-.7-.29-1.13-.38-.19.31-.35.68-.46,1.1l-.55-.24c.1-.36.21-.68.36-.97-.32-.04-.62-.05-.91-.03l.02-.58c.37-.03.8,0,1.24.04.25-.34.52-.62.84-.87-.92-.23-2.13-.13-3.02.11l-.21-.69ZM70.75,114.79c.41-.56.64-1.22.56-1.87.17.06.47.12.67.11.03.63-.19,1.26-.58,1.83.57-.05,1.23.06,2,.54-.09.15-.16.44-.19.64-.8-.55-1.47-.61-2-.47l.66,1.15-.54.31-.71-1.24c-.07.03-.13.07-.19.1l-.59.34.31.53c.31-.03.6-.02.87.01-.03.16-.05.45-.03.6-.59-.08-1.34.04-1.89.2l-.19-.64c.18-.04.38-.08.57-.11l-1.07-1.85.53-.31.56.97.6-.35c.06-.04.12-.07.19-.1l-.68-1.18.54-.31.62,1.07Z"/>
      <path class="cls-4" d="M69.01,95.71v2.56h.35v.66h-4.23c.18.11.34.22.49.34-.14.09-.44.35-.57.5-.69-.59-1.78-1.03-2.88-1.29l.16-.68c.47.13.94.27,1.39.45v-1.16c-.32.12-.8.32-1.15.52l-.2-.61c.38-.21.89-.45,1.21-.56l.13.37v-.98h.66v.98h.88v-.87h.62v.87h.93v-.87h.62v.87h.93v-1.07h.66ZM62.78,99.39c.27.87.43,2.18.49,3.28-.16.02-.39.07-.53.13-.08-1.07-.25-2.35-.49-3.11l.53-.29ZM64.09,100.3c-.28-.17-.74-.38-1.06-.49l.2-.5c.38.19.78.39,1.04.56l-.18.43ZM65.31,99.92c.38-.3.9-.59,1.26-.71l.24.53c-.12.04-.24.09-.39.16.23,2.22.25,2.49.35,2.67-.13.02-.43.09-.6.15-.02-.17-.13-.36-.29-.61-.06-.11-.2-.3-.36-.53.03.67.06.82.1.92-.13.02-.43.1-.59.16-.02-.1-.09-.22-.2-.34-.09-.13-.46-.56-.87-.86l.19-.28c-.22.04-.55.16-.82.28l-.19-.49c.24-.13.58-.27.81-.31l.21.5.11-.16c.27.23.53.51.75.78l-.02-.83c-.2-.22-.42-.45-.64-.67l.35-.45c.53.55.97,1.12,1.34,1.7l-.11-1.37c-.15.09-.29.17-.42.27l-.21-.5ZM64.35,102.35c-.23.04-.6.18-.86.31l-.2-.49c.25-.15.59-.28.82-.34l.23.51ZM64.38,97.43v.83h.88v-.83h-.88ZM65.88,97.43v.83h.93v-.83h-.93ZM66.57,100.71c.19,0,.38.02.55.05v-1.42h.55v1.52l.13.02c.31-.53.74-1.19,1.06-1.52l.45.42c-.28.27-.68.82-1,1.32.47.27.82.71,1.05,1.47-.16.06-.4.24-.52.37-.24-.86-.61-1.25-1.18-1.43v1.3h-.55v-1.43c-.16-.02-.35-.04-.55-.05v-.64h0ZM68.35,98.27v-.83h-.93v.83h.93Z"/>
      <path class="cls-4" d="M67.86,80.46c.23.39.42.83.58,1.29.94.06,1.76.44,2.56.91.97.56,1.84,1.16,2.07,1.69.09.17.08.36.02.55-.1.3-.26.59-.46.9-.2-.12-.49-.19-.73-.18.23-.33.38-.6.45-.76.05-.11.05-.2,0-.29-.12-.29-.85-.8-1.72-1.3l-.1-.05c.25.54.45,1.12.53,1.6-.22.01-.52.07-.73.16-.05-.67-.38-1.58-.79-2.24-.29-.11-.58-.2-.9-.25.1.38.17.75.21,1.1-.17.04-.49.11-.67.2-.05-.44-.14-.89-.27-1.33-.41.02-.84.1-1.31.28l-.09-.65c.42-.16.8-.25,1.17-.29-.14-.34-.29-.64-.45-.91l.62-.4ZM70.98,77.27c3.1,1.91,4.16,2.62,4.34,3.06.13.27.1.48,0,.73-.09.23-.3.58-.52.93-.19-.1-.5-.18-.75-.17.24-.34.43-.67.52-.82.06-.11.08-.19.02-.32-.11-.32-1.08-1-3.73-2.61l-1.29,2.24c.19.28.36.57.49.84l1.13-1.96,2.3,1.33-.84,1.45.49.28-.33.57-2.7-1.56c.07.15.13.3.18.44-.16.05-.51.19-.68.28-.26-.84-.89-1.76-1.63-2.52l.51-.53c.23.25.45.52.66.78l1.5-2.6.32.18ZM70.92,80.93l1.22.7.51-.89-1.22-.7-.51.89Z"/>
      <path class="cls-4" d="M84.51,68.4c-.08.33-.19.66-.31.97l1.87-1.08,1.78,3.08-.61.35-.15-.26-1.64.95.15.26-.59.34-1.37-2.37c-.15.27-.28.53-.44.78-.14-.07-.41-.18-.61-.24.5.9.91,1.78.85,2.3-.01.19-.1.34-.25.46-.19.18-.47.35-.77.51-.12-.2-.32-.41-.52-.51.32-.16.56-.29.68-.39.09-.07.14-.14.15-.24.03-.29-.37-1.12-.87-1.97l-.05-.09c-.05.62-.19,1.23-.38,1.7-.17-.12-.46-.27-.68-.32.32-.6.48-1.52.44-2.29-.19-.26-.41-.5-.66-.72-.1.45-.23.86-.37,1.2-.18-.12-.48-.28-.69-.35.18-.35.34-.79.46-1.27-.33-.18-.69-.32-1.12-.42l.24-.58c.37.08.72.2,1.02.34.05-.31.07-.61.07-.88l.65.03c-.01.36-.05.77-.12,1.19.8.55,1.31,1.29,1.79,2.12l.06.11c.45-.68.84-1.42,1.1-2.2l-1.62.93-.32-.56,1.41-.82-.42-.72-1.09.63-.32-.55,1.09-.63-.42-.72.62-.36.42.72.96-.56.18.31c.03-.36.04-.72.03-1.08l.69-.12c.02.72-.04,1.45-.17,2.16l1.11-.64.32.56-1.62.94ZM83.74,68.1l.18-.1c.09-.36.15-.71.2-1.08l-.8.46.42.72ZM85.76,69.17l-1.64.94.36.63,1.64-.94-.37-.63ZM86.79,70.95l-.38-.65-1.64.94.38.65,1.64-.95Z"/>
    </g>
    <g>
      <g>
        <path class="cls-4" d="M98.21,77.7v.33h-1.38v-.31c.43-.3.93-.77.93-1.13,0-.21-.13-.34-.37-.34-.17,0-.38.09-.51.2v-.38c.14-.11.37-.18.58-.18.4,0,.7.22.7.65,0,.4-.29.79-.8,1.16h.84Z"/>
        <path class="cls-4" d="M99.21,75.88c.49,0,.76.43.76,1.09s-.25,1.09-.76,1.09-.76-.45-.76-1.09c0-.66.27-1.09.76-1.09ZM99.21,77.7c.23,0,.37-.26.37-.74s-.15-.73-.37-.73-.36.25-.36.73.14.74.36.74Z"/>
        <path class="cls-4" d="M101.59,77.7v.33h-1.38v-.31c.43-.3.93-.77.93-1.13,0-.21-.13-.34-.37-.34-.17,0-.37.09-.51.2v-.38c.14-.11.37-.18.58-.18.4,0,.7.22.7.65,0,.4-.29.79-.8,1.16h.85Z"/>
        <path class="cls-4" d="M102.59,75.88c.5,0,.76.43.76,1.09s-.25,1.09-.76,1.09-.76-.45-.76-1.09.27-1.09.76-1.09ZM102.59,77.7c.23,0,.37-.26.37-.74s-.15-.73-.37-.73-.36.25-.36.73c0,.48.14.74.36.74Z"/>
      </g>
      <g>
        <path class="cls-4" d="M109.29,79.7l-.17.29-1.2-.69.16-.27c.52-.05,1.19-.2,1.37-.51.11-.18.06-.36-.15-.48-.15-.09-.37-.11-.55-.08l.19-.33c.17-.02.41.03.6.13.35.2.5.54.28.91-.2.34-.65.54-1.27.61l.73.42Z"/>
        <path class="cls-4" d="M111.07,78.62c.43.25.45.75.12,1.32-.32.55-.76.82-1.21.57-.43-.25-.43-.76-.11-1.33.33-.57.77-.81,1.2-.56ZM110.15,80.21c.2.11.45-.04.69-.46.24-.42.24-.71.05-.82-.18-.11-.43.03-.68.46-.24.42-.25.71-.06.82Z"/>
        <path class="cls-4" d="M112.21,81.39l-.17.29-1.2-.69.15-.27c.52-.05,1.19-.2,1.37-.51.11-.18.06-.36-.15-.48-.15-.09-.37-.11-.55-.08l.19-.33c.17-.02.41.03.6.13.35.2.5.54.28.91-.2.34-.65.54-1.27.61l.73.42Z"/>
        <polygon class="cls-4" points="113.08 80.21 113.73 80.21 114.03 80.38 112.97 82.21 112.64 82.02 113.49 80.55 112.88 80.56 113.08 80.21"/>
      </g>
      <g>
        <path class="cls-4" d="M118.23,87.08l-.29.17-.69-1.2.27-.16c.48.22,1.13.42,1.44.24.19-.11.23-.28.11-.49-.09-.15-.26-.28-.43-.35l.33-.19c.16.07.34.23.45.41.2.35.16.72-.21.93-.34.2-.83.14-1.4-.11l.42.73Z"/>
        <path class="cls-4" d="M120.31,87.04c.25.43,0,.88-.56,1.21-.55.32-1.07.33-1.33-.11-.25-.43,0-.88.57-1.2.57-.33,1.07-.31,1.32.11ZM118.72,87.95c.12.2.41.19.82-.05.42-.24.56-.49.45-.68-.11-.19-.39-.19-.82.06-.42.24-.57.49-.46.68Z"/>
        <path class="cls-4" d="M119.92,90l-.29.17-.69-1.2.27-.16c.48.22,1.13.42,1.44.24.19-.11.23-.28.11-.49-.09-.15-.26-.28-.43-.35l.33-.19c.16.07.34.23.45.41.2.35.16.72-.21.93-.34.2-.83.14-1.4-.11l.42.73Z"/>
        <path class="cls-4" d="M120.72,91.4l-.29.17-.69-1.2.27-.16c.48.22,1.13.42,1.44.24.19-.11.23-.28.11-.49-.09-.15-.26-.28-.43-.35l.33-.19c.16.07.34.23.45.41.2.35.16.72-.21.93-.34.2-.83.14-1.4-.11l.42.73Z"/>
      </g>
      <g>
        <path class="cls-4" d="M122.29,97.92h-.33v-1.38h.31c.3.43.77.93,1.13.93.21,0,.34-.13.34-.37,0-.17-.09-.38-.2-.51h.38c.11.14.18.37.18.58,0,.4-.22.7-.65.7-.39,0-.79-.29-1.16-.8v.84h0Z"/>
        <path class="cls-4" d="M124.11,98.93c0,.5-.43.76-1.09.76s-1.09-.25-1.09-.76.45-.76,1.09-.76c.66,0,1.09.27,1.09.76ZM122.28,98.93c0,.23.26.37.74.37s.73-.15.73-.37-.25-.36-.73-.36c-.48,0-.74.14-.74.36Z"/>
        <path class="cls-4" d="M122.29,101.3h-.33v-1.38h.31c.3.43.77.93,1.13.93.21,0,.34-.13.34-.37,0-.17-.09-.37-.2-.51h.38c.11.14.18.37.18.58,0,.4-.22.7-.65.7-.39,0-.79-.29-1.16-.8v.85h0Z"/>
        <path class="cls-4" d="M123.97,101.61c.06.11.12.28.12.46,0,.46-.25.71-.58.71-.23,0-.41-.11-.5-.33-.06.24-.23.38-.49.38-.34,0-.6-.26-.6-.74,0-.19.04-.41.11-.56h.38c-.08.15-.14.33-.14.53,0,.24.13.37.29.37s.28-.13.28-.46v-.12h.33v.12c0,.22.09.4.28.4s.27-.14.27-.33c0-.16-.07-.33-.14-.44h.37Z"/>
      </g>
      <g>
        <path class="cls-4" d="M120.29,109.56l-.29-.17.69-1.2.27.15c.05.52.2,1.19.51,1.37.18.11.36.06.48-.15.09-.15.11-.37.08-.55l.33.19c.02.17-.02.41-.13.6-.2.35-.54.5-.91.28-.34-.2-.54-.65-.61-1.27l-.42.73Z"/>
        <path class="cls-4" d="M121.36,111.34c-.25.43-.75.45-1.32.12-.55-.32-.82-.76-.56-1.21.25-.43.76-.43,1.33-.11.57.33.81.77.56,1.2ZM119.78,110.43c-.12.2.04.45.46.69.42.24.71.24.82.05.11-.18-.03-.43-.46-.68-.42-.24-.71-.25-.82-.06Z"/>
        <path class="cls-4" d="M118.6,112.49l-.29-.17.69-1.2.27.15c.05.52.2,1.19.51,1.37.18.11.36.06.48-.15.09-.15.11-.37.08-.55l.33.19c.02.17-.03.41-.13.6-.2.35-.54.5-.91.28-.34-.2-.54-.65-.61-1.27l-.42.73Z"/>
        <path class="cls-4" d="M117.8,114.16l.14-.24-.41-.24.19-.34.41.24.47-.82.29.17.78,1.27-.31.54-1.13-.65-.14.24-.29-.17ZM118.42,113.75l.92.53-.64-1.01-.28.48Z"/>
      </g>
      <g>
        <path class="cls-4" d="M112.55,118.55l-.17-.29,1.2-.69.16.27c-.22.48-.42,1.13-.24,1.44.11.18.28.23.49.11.15-.09.28-.26.35-.43l.19.33c-.07.16-.23.34-.41.45-.35.2-.72.16-.93-.21-.2-.34-.14-.83.11-1.4l-.73.42Z"/>
        <path class="cls-4" d="M112.59,120.63c-.43.25-.88,0-1.2-.56-.32-.56-.33-1.07.11-1.33.43-.25.88,0,1.2.57.33.57.31,1.07-.11,1.32ZM111.68,119.05c-.2.11-.19.41.05.82.24.42.49.56.68.45.18-.11.19-.39-.06-.82-.24-.42-.49-.57-.68-.46Z"/>
        <path class="cls-4" d="M109.63,120.24l-.17-.29,1.2-.69.16.27c-.22.48-.42,1.13-.24,1.44.11.18.28.23.49.11.15-.09.28-.26.35-.43l.19.33c-.07.16-.23.34-.41.45-.35.2-.72.16-.93-.21-.2-.34-.14-.83.11-1.4l-.73.42Z"/>
        <path class="cls-4" d="M109.47,121.47s-.1.08-.15.11c-.4.23-.74.14-.94-.21-.21-.36-.11-.76.35-1.02.17-.1.36-.17.54-.18l.19.32c-.14,0-.34.05-.49.14-.28.16-.35.35-.23.55.1.16.28.19.49.07.16-.09.3-.24.36-.34l.61,1.06-.99.57-.17-.29.66-.38-.23-.4Z"/>
      </g>
      <g>
        <path class="cls-4" d="M101.7,122.19v-.33h1.38v.31c-.43.3-.93.77-.93,1.13,0,.21.13.34.37.34.18,0,.38-.09.51-.2v.38c-.14.11-.37.18-.58.18-.4,0-.7-.22-.7-.65,0-.39.29-.79.8-1.16h-.84Z"/>
        <path class="cls-4" d="M100.7,124.01c-.5,0-.76-.43-.76-1.09s.25-1.09.76-1.09.76.45.76,1.09-.27,1.09-.76,1.09ZM100.7,122.18c-.23,0-.37.26-.37.74s.15.73.37.73.36-.25.36-.73-.14-.74-.36-.74Z"/>
        <path class="cls-4" d="M98.32,122.19v-.33h1.38v.31c-.43.3-.93.77-.93,1.13,0,.21.13.34.37.34.17,0,.38-.09.51-.2v.38c-.14.11-.37.18-.58.18-.4,0-.7-.22-.7-.65,0-.39.29-.79.8-1.16h-.84Z"/>
        <path class="cls-4" d="M96.73,123.6c.09.05.18.06.29.06.36,0,.57-.28.63-.62-.12.11-.28.18-.46.18-.38,0-.62-.27-.62-.68s.27-.74.72-.74c.52,0,.77.42.77,1.02,0,.72-.41,1.2-1.02,1.2-.12,0-.24-.02-.32-.05v-.37h0ZM96.97,122.53c0,.21.12.35.31.35.16,0,.28-.07.38-.18-.03-.4-.18-.55-.38-.55s-.32.16-.32.38Z"/>
      </g>
      <g>
        <path class="cls-4" d="M89.81,119.78l.17-.29,1.2.69-.16.27c-.52.05-1.19.2-1.37.51-.11.18-.06.36.15.48.15.09.37.11.55.08l-.19.33c-.17.02-.41-.03-.6-.13-.35-.2-.5-.54-.28-.91.2-.34.65-.54,1.27-.61l-.73-.42Z"/>
        <path class="cls-4" d="M88.03,120.86c-.43-.25-.45-.75-.12-1.32.32-.55.77-.82,1.21-.56.43.25.43.76.11,1.33-.33.57-.77.81-1.2.56ZM88.94,119.27c-.2-.11-.45.04-.69.46-.24.42-.24.71-.05.82.18.11.43-.03.68-.46.24-.42.25-.71.06-.82Z"/>
        <path class="cls-4" d="M86.88,118.09l.17-.29,1.2.69-.16.27c-.52.05-1.19.2-1.37.51-.11.18-.06.36.15.48.15.09.37.11.55.08l-.19.33c-.17.02-.41-.03-.6-.13-.35-.2-.5-.54-.28-.91.2-.34.65-.54,1.27-.61l-.73-.42Z"/>
        <polygon class="cls-4" points="84.62 118.85 84.78 118.55 86.4 117.43 86.76 117.64 85.14 118.76 86 119.26 85.83 119.55 84.62 118.85"/>
      </g>
      <g>
        <path class="cls-4" d="M81.13,111.99l.29-.17.69,1.2-.27.15c-.48-.22-1.13-.42-1.44-.24-.18.11-.23.28-.11.49.09.15.26.28.43.34l-.33.19c-.16-.07-.34-.23-.45-.41-.2-.35-.16-.72.21-.93.34-.2.83-.14,1.4.11l-.42-.73Z"/>
        <path class="cls-4" d="M79.05,112.03c-.25-.43,0-.88.56-1.21.55-.32,1.07-.33,1.33.12.25.43,0,.88-.57,1.2-.57.33-1.07.31-1.32-.11ZM80.64,111.11c-.11-.2-.41-.19-.82.05-.42.24-.56.49-.45.68.11.18.39.19.82-.06.42-.24.57-.49.46-.68Z"/>
        <path class="cls-4" d="M79.44,109.06l.29-.17.69,1.2-.27.15c-.48-.22-1.13-.42-1.44-.24-.19.11-.23.28-.11.49.09.15.26.28.43.35l-.33.19c-.16-.07-.34-.23-.45-.41-.2-.35-.16-.72.21-.93.34-.2.83-.14,1.4.11l-.42-.73Z"/>
        <path class="cls-4" d="M78.36,107.67c.32-.18.68-.03.9.35.22.38.17.75-.14.93-.22.12-.42.09-.6-.04.01.21-.07.39-.26.49-.35.2-.7.03-.89-.3-.19-.33-.19-.71.18-.93.18-.1.37-.09.54.02-.03-.21.04-.4.26-.53ZM78.06,109.07c.18-.1.19-.28.1-.42-.08-.15-.24-.22-.42-.12-.13.08-.22.21-.09.42.11.19.28.19.41.12ZM78.55,108.02c-.14.08-.21.25-.09.46.13.21.31.22.45.14.13-.07.2-.23.07-.44-.12-.22-.31-.23-.44-.16Z"/>
      </g>
      <g>
        <path class="cls-4" d="M77.66,101.17h.33v1.38h-.31c-.3-.43-.77-.93-1.13-.93-.21,0-.34.13-.34.37,0,.17.09.38.2.51h-.38c-.11-.14-.18-.37-.18-.58,0-.4.22-.7.65-.7.39,0,.79.29,1.16.8v-.84h0Z"/>
        <path class="cls-4" d="M75.84,100.17c0-.49.43-.76,1.09-.76s1.09.25,1.09.76-.45.76-1.09.76c-.66,0-1.09-.27-1.09-.76ZM77.66,100.17c0-.23-.26-.37-.74-.37s-.73.15-.73.37.25.36.73.36.74-.14.74-.36Z"/>
        <path class="cls-4" d="M77.66,97.79h.33v1.38h-.31c-.3-.43-.77-.93-1.13-.93-.21,0-.34.13-.34.37,0,.17.09.38.2.51h-.38c-.11-.14-.18-.37-.18-.58,0-.4.22-.7.65-.7.39,0,.79.29,1.16.8v-.84h0Z"/>
        <path class="cls-4" d="M77.58,97.46c.04-.09.08-.22.08-.34,0-.37-.19-.56-.58-.61.11.1.16.24.16.44,0,.36-.26.64-.68.64-.4,0-.72-.26-.72-.71,0-.51.41-.77.99-.77.79,0,1.18.38,1.18.97,0,.15-.03.28-.06.38h-.37ZM76.75,96.49c-.37.02-.55.15-.55.37,0,.2.14.33.36.33s.36-.13.36-.33c0-.17-.06-.27-.17-.36Z"/>
      </g>
      <g>
        <path class="cls-4" d="M79.79,90.12l.29.17-.69,1.2-.27-.15c-.05-.52-.2-1.19-.51-1.37-.18-.11-.36-.06-.48.15-.09.15-.11.37-.08.55l-.33-.19c-.02-.17.02-.41.13-.6.2-.35.54-.5.91-.28.34.2.54.65.61,1.27l.42-.73Z"/>
        <path class="cls-4" d="M78.72,88.34c.25-.43.75-.45,1.32-.12.55.32.82.76.57,1.21-.25.43-.76.43-1.33.11-.57-.33-.81-.77-.56-1.2ZM80.3,89.25c.11-.2-.04-.45-.46-.69-.42-.24-.71-.24-.82-.05-.11.18.03.43.46.68.42.24.71.25.82.06Z"/>
        <path class="cls-4" d="M79.37,87.48c0-.12.04-.31.13-.46.23-.4.57-.49.86-.33.2.11.3.3.26.54.17-.18.39-.22.61-.09.3.17.39.52.15.94-.09.16-.24.34-.37.43l-.33-.19c.15-.09.28-.22.38-.39.12-.21.07-.39-.07-.47-.14-.08-.31-.03-.47.25l-.06.11-.28-.16.06-.11c.11-.19.12-.4-.04-.49-.17-.1-.3-.02-.4.15-.08.13-.11.32-.1.45l-.32-.18Z"/>
        <path class="cls-4" d="M80.37,85.48c.25-.43.75-.45,1.32-.12.55.32.82.76.57,1.21-.25.43-.77.43-1.33.11-.57-.33-.81-.77-.56-1.2ZM81.95,86.39c.11-.2-.04-.45-.46-.69-.42-.24-.71-.24-.82-.05-.11.19.03.43.46.68.42.24.71.25.82.06Z"/>
      </g>
      <g>
        <path class="cls-4" d="M87.69,81.24l.17.29-1.2.69-.16-.27c.22-.48.42-1.13.24-1.44-.11-.18-.28-.23-.49-.11-.15.09-.28.26-.35.43l-.19-.33c.07-.16.23-.34.41-.45.35-.2.72-.16.93.21.2.34.14.83-.11,1.4l.73-.42Z"/>
        <path class="cls-4" d="M87.65,79.16c.43-.25.88,0,1.2.56.32.55.33,1.07-.11,1.33-.43.25-.88,0-1.2-.57-.33-.57-.31-1.07.11-1.32ZM88.56,80.75c.2-.11.19-.41-.05-.82-.24-.42-.49-.56-.68-.45-.18.11-.19.39.06.82.24.42.49.57.68.46Z"/>
        <path class="cls-4" d="M88.65,78.74c.06-.1.19-.25.34-.34.4-.23.74-.14.9.14.11.2.11.41-.04.6.23-.07.44,0,.57.23.17.3.08.65-.34.89-.16.09-.38.17-.54.19l-.19-.33c.18,0,.35-.05.53-.15.21-.12.26-.3.18-.44-.08-.14-.25-.18-.54-.02l-.11.06-.16-.28.11-.06c.19-.11.3-.28.21-.45-.1-.16-.25-.17-.42-.07-.13.08-.25.22-.31.34l-.18-.32Z"/>
        <polygon class="cls-4" points="89.97 78.25 90.29 77.68 90.59 77.51 91.65 79.35 91.32 79.54 90.47 78.07 90.18 78.6 89.97 78.25"/>
      </g>
    </g>
    <path class="cls-2" d="M117.37,100c0,9.59-7.78,17.37-17.37,17.37s-17.37-7.78-17.37-17.37,7.78-17.37,17.37-17.37,17.37,7.78,17.37,17.37Z"/>
    <g>
      <g>
        <path class="cls-4" d="M98.76,10.52h-.39v1.38h-.71v-3.79h1.17c.87,0,1.38.48,1.38,1.2,0,.56-.29.92-.72,1.1l.97,1.5h-.85l-.86-1.38ZM98.37,9.94h.47c.45,0,.65-.25.65-.63s-.24-.61-.66-.61h-.46v1.24Z"/>
        <path class="cls-4" d="M101.02,9.2c.17-.11.53-.2.92-.2.79,0,1.16.36,1.16,1.08v1.82h-.67v-.34c-.09.17-.3.37-.74.37-.56,0-.88-.37-.88-.83,0-.53.41-.87,1.18-.87h.42v-.17c0-.3-.13-.48-.55-.48-.31,0-.62.11-.84.25v-.62h0ZM102.05,10.68c-.37,0-.55.17-.55.39s.14.36.42.36c.3,0,.48-.2.48-.48v-.27h-.35Z"/>
        <path class="cls-4" d="M104.61,11.01c0,.24.14.37.36.37.13,0,.28-.04.39-.12v.58c-.14.07-.37.1-.51.1-.63,0-.92-.33-.92-.93v-1.44h-.43v-.51h.43v-.69h.67v.69h.71v.51h-.71v1.45Z"/>
      </g>
      <g>
        <path class="cls-4" d="M145,19.72c.96.55,1.17,1.57.58,2.59-.58,1.01-1.58,1.34-2.52.79-.94-.55-1.17-1.57-.58-2.58.58-1.01,1.58-1.34,2.52-.8ZM143.38,22.53c.56.32,1.14.09,1.54-.61.4-.69.31-1.32-.25-1.64-.55-.32-1.14-.08-1.54.61-.4.69-.3,1.32.25,1.64Z"/>
        <polygon class="cls-4" points="147.21 25.45 146.56 25.08 146.55 23.97 145.57 24.5 144.93 24.13 146.51 23.38 146.41 21.69 147.06 22.07 147.06 23.14 148.01 22.62 148.67 23 147.1 23.73 147.21 25.45"/>
      </g>
      <g>
        <polygon class="cls-4" points="177.87 51.46 177.39 50.63 174.61 52.23 174.26 51.61 177.03 50.01 176.55 49.18 177.06 48.88 178.38 51.17 177.87 51.46"/>
        <path class="cls-4" d="M177.83,52.1l.34.58-2.47,1.43-.34-.58,2.47-1.43ZM179.09,51.76c.11.19.05.44-.15.55-.2.12-.45.05-.56-.15-.11-.19-.05-.44.15-.56.19-.11.44-.05.55.15Z"/>
        <path class="cls-4" d="M179.81,55.52l-2.25,1.3c-.82.48-1.49.12-1.87-.52-.16-.28-.29-.62-.32-.95l.59-.34c-.03.3.06.64.22.93.26.44.58.56,1.03.3l.21-.12c-.32,0-.59-.17-.77-.49-.29-.51-.21-1.22.61-1.69.7-.41,1.46-.31,1.82.31.19.33.17.64.01.91l.36-.21.34.58ZM178.23,55.65c.56-.32.62-.7.45-.99-.2-.34-.6-.38-1.05-.12-.48.28-.57.65-.4.95.18.31.59.41,1,.17Z"/>
        <path class="cls-4" d="M178.91,59.35c-.22-.12-.45-.41-.59-.65-.46-.8-.2-1.58.52-2,.81-.47,1.55-.22,1.91.4.36.62.23,1.26-.54,1.71-.09.05-.27.13-.37.17l-.89-1.55c-.31.3-.33.69-.11,1.09.15.27.37.45.57.54l-.51.29ZM180.05,58.16c.29-.19.43-.46.25-.78-.15-.26-.48-.39-.92-.21l.6,1.04.07-.04Z"/>
        <path class="cls-4" d="M181.54,59.53c.33-.06.64.05.82.36.03.05.06.1.08.17l-.57.33c-.01-.11-.05-.19-.09-.28-.19-.33-.61-.37-.99-.15l-1.28.74-.34-.59,2.47-1.42.34.58-.44.25Z"/>
      </g>
      <g>
        <path class="cls-4" d="M189.34,90.26v-.39h-1.38v-.71h3.79v1.17c0,.87-.48,1.38-1.2,1.38-.56,0-.92-.29-1.1-.72l-1.5.97v-.85l1.38-.86ZM189.93,89.87v.47c0,.45.25.65.63.65s.61-.24.61-.66v-.46h-1.24Z"/>
        <path class="cls-4" d="M190.66,92.52c.11.17.2.53.2.92,0,.79-.36,1.16-1.08,1.16h-1.82v-.67h.34c-.17-.09-.37-.3-.37-.74,0-.56.37-.88.83-.88.53,0,.87.4.87,1.18v.42h.17c.3,0,.48-.13.48-.55,0-.31-.11-.62-.25-.84h.62ZM189.18,93.55c0-.37-.17-.55-.39-.55s-.36.14-.36.42c0,.3.2.48.48.48h.27v-.35h0Z"/>
        <path class="cls-4" d="M190.38,95.98c.31.2.47.5.47.86,0,.7-.55,1.23-1.47,1.23-.76,0-1.46-.44-1.46-1.22,0-.37.17-.67.48-.86h-.44v-.68h3.98v.68h-1.56ZM189.37,97.38c.6,0,.91-.32.91-.69,0-.32-.24-.7-.87-.7s-.91.33-.91.71c0,.38.34.69.87.69Z"/>
        <path class="cls-4" d="M190.38,99.33c.31.2.47.5.47.86,0,.7-.55,1.23-1.47,1.23-.76,0-1.46-.44-1.46-1.22,0-.37.17-.67.48-.86h-.44v-.68h3.98v.68h-1.56ZM189.37,100.72c.6,0,.91-.32.91-.69,0-.32-.24-.7-.87-.7s-.91.33-.91.71c0,.38.34.69.87.69Z"/>
        <path class="cls-4" d="M190.81,102.02v.67h-2.85v-.67h2.85ZM192.07,102.35c0,.23-.18.41-.41.41s-.41-.18-.41-.41.18-.41.41-.41.41.18.41.41Z"/>
        <path class="cls-4" d="M188.85,104.27c-.24,0-.37.14-.37.36,0,.13.05.28.12.39h-.58c-.07-.14-.1-.37-.1-.51,0-.63.33-.92.93-.92h1.44v-.43h.51v.43h.69v.67h-.69v.71h-.51v-.71h-1.45Z"/>
      </g>
      <g>
        <path class="cls-4" d="M182.26,140.68c-.57.99-1.65,1.27-2.56.75-1-.58-1.32-1.61-.72-2.64l.62-1.07,3.28,1.9-.62,1.07ZM179.49,139.07c-.41.71-.12,1.33.57,1.73.61.35,1.31.23,1.69-.44l.25-.42-2.26-1.3-.25.43Z"/>
        <path class="cls-4" d="M179.41,142.73c.21.26.28.58.1.89-.03.05-.06.1-.11.16l-.56-.33c.09-.06.14-.14.19-.22.19-.33.01-.71-.37-.93l-1.28-.74.34-.59,2.47,1.43-.34.58-.44-.25Z"/>
        <path class="cls-4" d="M179.03,144.11c0,.2-.09.56-.29.9-.39.68-.89.82-1.51.46l-1.58-.91.33-.58.3.17c-.1-.16-.16-.45.05-.83.28-.48.76-.58,1.16-.35.46.27.55.78.16,1.46l-.21.36.15.09c.26.15.48.13.69-.23.15-.27.21-.6.2-.85l.54.31ZM177.23,144.26c.19-.32.12-.56-.06-.67-.19-.11-.38-.06-.52.18-.15.26-.07.51.18.65l.23.14.17-.3Z"/>
        <path class="cls-4" d="M176.51,148.76l-2.25-1.3c-.82-.48-.85-1.23-.48-1.88.16-.28.39-.56.67-.75l.59.34c-.27.13-.53.37-.69.66-.26.44-.19.78.25,1.04l.21.12c-.15-.28-.15-.59.04-.91.29-.51.95-.79,1.77-.32.7.41,1,1.11.65,1.73-.19.33-.47.46-.78.46l.36.21-.34.58ZM175.61,147.46c.56.32.91.18,1.08-.11.2-.34.03-.71-.42-.97-.48-.28-.85-.17-1.02.13-.18.31-.06.71.35.95Z"/>
        <path class="cls-4" d="M174.97,148.51c.74.42,1.04,1.21.61,1.94-.46.79-1.25.87-1.96.46-.72-.42-1.04-1.16-.59-1.93.45-.78,1.24-.87,1.93-.47ZM174.64,149.13c-.43-.25-.91-.27-1.13.12-.23.4.03.79.46,1.04.43.25.9.31,1.15-.12.22-.39-.04-.79-.47-1.04Z"/>
        <path class="cls-4" d="M173.81,152.46c.21.3.22.66.01,1.02-.28.49-.77.62-1.32.3l-1.64-.95.34-.58,1.52.88c.33.19.59.11.74-.15.16-.28.09-.67-.37-.94l-1.33-.76.34-.58,2.47,1.43-.34.58-.42-.24Z"/>
      </g>
      <g>
        <path class="cls-4" d="M150.03,176.34c.3,0,.64-.08.91-.23.31-.18.4-.44.28-.65-.14-.23-.46-.22-.84-.18-.52.06-1.1.1-1.44-.49-.34-.59-.09-1.23.59-1.62.33-.19.72-.32,1.04-.32l.36.63c-.4-.04-.78.05-1.09.23-.29.17-.41.44-.26.69.15.26.5.21.94.16.48-.04,1.03-.07,1.35.49.32.56.09,1.18-.6,1.58-.26.15-.58.28-.89.3l-.34-.59Z"/>
        <path class="cls-4" d="M148.48,176.56c.03.36-.14.68-.5.89-.49.28-.98.15-1.29-.4l-.95-1.64.58-.34.88,1.52c.19.33.46.39.72.24.28-.16.41-.54.14-1l-.76-1.32.58-.34,1.43,2.47-.58.34-.25-.42Z"/>
        <path class="cls-4" d="M146.43,178.15c-.1.18-.36.43-.7.63-.68.39-1.18.27-1.54-.36l-.91-1.58.58-.33.17.3c0-.19.08-.47.46-.69.48-.28.95-.12,1.18.28.27.46.08.95-.59,1.34l-.36.21.09.15c.15.26.35.35.71.15.27-.15.48-.41.6-.64l.31.54ZM144.79,177.38c.32-.19.39-.42.28-.61-.11-.19-.3-.24-.54-.1-.26.15-.32.41-.18.65l.14.23.3-.17Z"/>
        <polygon class="cls-4" points="141.2 178.04 142.82 178.81 142.08 177.53 142.67 177.19 144.62 180.58 144.04 180.92 142.84 178.84 142.64 180.5 141.96 180.9 142.18 179.2 140.51 178.44 141.2 178.04"/>
        <path class="cls-4" d="M138.32,179.88c.12-.22.41-.45.65-.59.8-.46,1.58-.2,2,.52.47.81.22,1.55-.4,1.91-.62.36-1.26.23-1.71-.54-.05-.09-.13-.27-.17-.37l1.55-.89c-.3-.31-.69-.33-1.09-.11-.27.15-.45.36-.55.57l-.29-.51ZM139.51,181.03c.19.29.46.43.78.25.26-.15.39-.48.21-.92l-1.04.6.04.07Z"/>
      </g>
      <g>
        <polygon class="cls-4" points="104.5 191.92 104.5 188.13 105.21 188.13 105.21 189.72 106.77 189.72 106.77 188.13 107.48 188.13 107.48 191.92 106.77 191.92 106.77 190.33 105.21 190.33 105.21 191.92 104.5 191.92"/>
        <path class="cls-4" d="M103.89,189.52c0,.85-.53,1.5-1.37,1.5-.91,0-1.38-.65-1.38-1.46s.48-1.48,1.38-1.48c.89,0,1.37.64,1.37,1.44ZM103.19,189.54c0-.5-.23-.92-.67-.92s-.67.42-.67.92.18.93.68.93c.45,0,.66-.43.66-.93Z"/>
        <path class="cls-4" d="M99.89,190.47c-.12.31-.36.53-.72.53-.06,0-.12,0-.19-.02v-.65c.1.05.19.06.29.06.38,0,.62-.34.62-.79v-1.47h.68v2.85h-.68v-.51h0Z"/>
        <path class="cls-4" d="M96.88,190.29c.17.1.43.17.7.17.24,0,.37-.11.37-.27,0-.22-.29-.31-.59-.45-.32-.16-.65-.37-.65-.79,0-.55.43-.85,1.05-.85.35,0,.67.08.85.17v.62c-.2-.14-.51-.25-.82-.25-.25,0-.39.1-.39.26,0,.23.28.32.6.46.31.14.62.35.62.81,0,.55-.47.84-1.05.84-.28,0-.55-.05-.72-.12v-.6h0Z"/>
        <path class="cls-4" d="M94,188.28c.21-.13.59-.19.86-.19.93,0,1.47.61,1.47,1.45,0,.94-.59,1.46-1.3,1.46s-1.21-.43-1.21-1.32c0-.11.02-.3.04-.41h1.79c-.1-.42-.43-.64-.89-.64-.31,0-.57.09-.76.22v-.58ZM94.47,189.87c.02.35.19.61.55.61.3,0,.58-.23.65-.69h-1.2v.08Z"/>
      </g>
      <g>
        <path class="cls-4" d="M57.6,177.69s.03-.05.03-.05c.32-.03.79.03,1.31.33,1.02.59,1.37,1.64.77,2.69-.59,1.03-1.73,1.26-2.72.69-.31-.18-.62-.43-.84-.76l.36-.63c.23.41.53.66.8.82.66.38,1.35.19,1.75-.49.4-.69.23-1.36-.46-1.76-.18-.1-.37-.17-.54-.2l-.45.77.6.35-.3.53-1.21-.7.91-1.58Z"/>
        <path class="cls-4" d="M56.61,178.28c-.42.74-1.21,1.04-1.94.61-.79-.46-.87-1.25-.46-1.96.42-.72,1.16-1.04,1.93-.59.77.45.87,1.24.47,1.93ZM55.99,177.94c.25-.43.27-.91-.12-1.13-.4-.23-.79.03-1.04.46-.25.43-.31.9.12,1.15.39.22.79-.04,1.04-.47Z"/>
        <path class="cls-4" d="M53.01,177.71c-.2,0-.56-.09-.9-.29-.68-.39-.82-.89-.46-1.51l.91-1.58.58.33-.17.3c.16-.1.45-.16.83.05.48.28.58.76.35,1.16-.27.46-.78.55-1.46.16l-.36-.21-.09.15c-.15.26-.13.48.23.69.27.15.6.21.85.2l-.31.54ZM52.85,175.91c.32.19.56.12.67-.06.11-.19.06-.38-.18-.52-.26-.15-.51-.07-.65.17l-.14.23.3.17Z"/>
        <path class="cls-4" d="M50.8,174.34c.12-.21.06-.39-.13-.5-.11-.06-.27-.1-.4-.09l.29-.5c.16.01.36.1.49.17.55.32.63.75.33,1.27l-.72,1.25.37.21-.25.44-.37-.21-.34.59-.58-.34.34-.59-.61-.35.25-.44.61.35.73-1.26Z"/>
      </g>
      <g>
        <path class="cls-4" d="M25.84,154.11l-.41-.7.93-1.14c.53-.65.96-1.1.96-1.1,0,0-.59.14-1.44.27l-1.46.23-.41-.7,3.1-2.22.35.61-1.21.86c-.61.43-1.1.75-1.1.75,0,0,.6-.11,1.39-.24l1.5-.25.24.42-.97,1.16c-.57.67-.91,1.04-.91,1.04.19-.11.67-.35,1.17-.59l1.34-.64.35.61-3.44,1.63Z"/>
        <path class="cls-4" d="M25.65,148.99c-.74.42-1.56.29-1.99-.44-.46-.79-.12-1.52.58-1.92.72-.42,1.52-.32,1.97.45.45.77.14,1.51-.56,1.91ZM25.28,148.39c.43-.25.69-.66.46-1.04-.23-.4-.7-.37-1.13-.12-.43.25-.72.62-.47,1.05.22.39.7.36,1.14.11Z"/>
        <path class="cls-4" d="M22.81,146.01c-.36.03-.68-.14-.89-.5-.28-.49-.15-.98.4-1.29l1.64-.95.34.58-1.52.88c-.33.19-.39.46-.24.72.16.28.54.41,1,.14l1.32-.76.34.58-2.47,1.43-.34-.58.42-.25Z"/>
        <polygon class="cls-4" points="22.76 141.19 21.99 142.81 23.27 142.07 23.61 142.66 20.22 144.61 19.88 144.03 21.96 142.83 20.3 142.63 19.9 141.95 21.6 142.17 22.36 140.5 22.76 141.19"/>
        <path class="cls-4" d="M20.91,138.31c.22.12.45.41.59.65.46.8.2,1.58-.52,2-.81.47-1.55.22-1.91-.4-.36-.62-.23-1.26.54-1.71.09-.05.27-.13.37-.17l.89,1.55c.31-.3.33-.69.11-1.09-.15-.27-.36-.45-.57-.55l.51-.29ZM19.77,139.5c-.29.19-.43.46-.25.78.15.26.48.39.92.21l-.6-1.04-.07.04Z"/>
        <path class="cls-4" d="M18.35,139.25l-.37-.65.62-.74c.62-.75.77-.88.77-.88,0,0-.2.05-1.14.24l-.94.2-.35-.61,2.92-.49c.87-.14,1.37.08,1.64.56.06.1.09.16.12.26l-.48.28c-.02-.07-.05-.12-.08-.18-.17-.3-.45-.41-.85-.35l-1.86,2.37Z"/>
      </g>
      <g>
        <path class="cls-4" d="M10.73,109.38v.39h1.38v.71h-3.79v-1.17c0-.87.48-1.38,1.2-1.38.56,0,.92.29,1.1.72l1.5-.97v.85l-1.38.86ZM10.15,109.77v-.47c0-.45-.25-.65-.63-.65s-.61.24-.61.66v.46h1.24Z"/>
        <path class="cls-4" d="M10.72,107.35c-.85,0-1.5-.53-1.5-1.37,0-.91.65-1.38,1.46-1.38s1.48.48,1.48,1.38-.64,1.37-1.44,1.37ZM10.7,106.64c.49,0,.92-.23.92-.67s-.42-.67-.92-.67-.93.18-.93.68c0,.45.43.66.93.66Z"/>
        <path class="cls-4" d="M10.72,104.17c-.85,0-1.5-.53-1.5-1.37,0-.91.65-1.38,1.46-1.38s1.48.48,1.48,1.38-.64,1.37-1.44,1.37ZM10.7,103.46c.49,0,.92-.23.92-.67s-.42-.67-.92-.67-.93.18-.93.68c0,.45.43.66.93.66Z"/>
        <path class="cls-4" d="M9.95,99.14c-.1.17-.17.43-.17.7,0,.24.11.37.27.37.22,0,.31-.29.45-.59.16-.32.37-.65.79-.65.55,0,.85.43.85,1.05,0,.35-.08.68-.17.86h-.62c.14-.2.25-.51.25-.82,0-.25-.1-.39-.26-.39-.22,0-.32.28-.46.6-.14.31-.35.62-.81.62-.55,0-.84-.47-.84-1.05,0-.28.05-.55.12-.72h.6Z"/>
        <path class="cls-4" d="M11.22,97.62c.24,0,.37-.14.37-.36,0-.13-.04-.28-.12-.39h.58c.07.14.1.37.1.51,0,.63-.33.92-.93.92h-1.44v.43h-.51v-.43h-.69v-.68h.69v-.71h.51v.71h1.45Z"/>
        <path class="cls-4" d="M11.96,94.14c.13.21.19.59.19.86,0,.93-.61,1.47-1.45,1.47-.94,0-1.46-.59-1.46-1.3s.43-1.21,1.32-1.21c.11,0,.3.02.41.04v1.79c.42-.1.64-.43.64-.89,0-.31-.09-.57-.23-.76h.59ZM10.37,94.6c-.35.02-.61.19-.61.55,0,.3.22.58.69.65v-1.2h-.08Z"/>
        <path class="cls-4" d="M9.77,92.66c-.31-.12-.53-.36-.53-.72,0-.06,0-.12.02-.19h.65c-.04.1-.06.19-.06.29,0,.38.34.62.79.62h1.47v.68h-2.85v-.68h.51Z"/>
      </g>
      <g>
        <path class="cls-4" d="M18.85,57.06c.57-.99,1.65-1.27,2.56-.75,1,.58,1.32,1.61.72,2.64l-.62,1.07-3.28-1.9.62-1.07ZM21.62,58.67c.41-.71.12-1.33-.57-1.73-.61-.35-1.31-.23-1.69.44l-.24.42,2.26,1.3.25-.43Z"/>
        <path class="cls-4" d="M22.12,56.2c-.74-.42-1.04-1.21-.61-1.94.46-.79,1.25-.87,1.96-.46.72.42,1.04,1.16.59,1.93-.45.77-1.24.87-1.93.47ZM22.45,55.58c.43.25.91.27,1.13-.12.23-.4-.03-.79-.46-1.04-.43-.25-.9-.31-1.15.12-.23.39.04.79.47,1.04Z"/>
        <path class="cls-4" d="M23.78,50.42l2.25,1.3c.82.48.85,1.23.48,1.88-.16.28-.39.56-.67.75l-.59-.34c.27-.13.53-.37.69-.66.26-.44.19-.78-.25-1.04l-.21-.12c.15.28.15.59-.04.91-.29.51-.95.79-1.77.32-.7-.41-1-1.11-.64-1.73.19-.33.47-.46.78-.46l-.36-.21.34-.58ZM24.68,51.71c-.56-.32-.91-.18-1.08.11-.2.34-.03.71.42.97.48.28.85.17,1.02-.13.18-.31.06-.71-.35-.95Z"/>
      </g>
      <g>
        <path class="cls-4" d="M52.14,21.42c.75-.43,1.49-.25,1.84.37.4.69.1,1.4-.58,1.79l-.43.25.64,1.12-.61.35-1.9-3.28,1.03-.59ZM53.03,23.13c.46-.27.52-.63.32-.98-.2-.35-.54-.45-.98-.2l-.36.21.67,1.17.35-.2Z"/>
        <path class="cls-4" d="M53.95,20.01c.19-.11.44-.05.55.15.12.2.05.45-.15.56-.19.11-.44.05-.56-.15-.11-.19-.05-.44.15-.55ZM54.29,21.27l.58-.34,1.43,2.47-.58.34-1.43-2.47Z"/>
        <path class="cls-4" d="M57.71,19.29l1.3,2.25c.48.82.12,1.49-.52,1.87-.28.16-.62.29-.95.32l-.34-.59c.3.03.64-.06.93-.22.44-.26.56-.58.3-1.03l-.12-.21c0,.32-.17.58-.49.77-.51.29-1.22.21-1.69-.61-.41-.7-.31-1.46.31-1.82.33-.19.64-.17.91-.01l-.21-.36.58-.34ZM57.84,20.87c-.32-.56-.7-.62-.99-.45-.34.2-.38.6-.12,1.05.28.48.65.57.95.4.31-.18.41-.59.17-1Z"/>
      </g>
    </g>
  </g>
</svg>