<?xml version="1.0" encoding="UTF-8"?>
<svg id="Layer_1" data-name="Layer 1" xmlns="http://www.w3.org/2000/svg" xmlns:xlink="http://www.w3.org/1999/xlink" viewBox="0 0 800 800">
  <defs>
    <style>
      .cls-1 {
        fill: url(#radial-gradient-7);
      }

      .cls-2 {
        fill: url(#radial-gradient-6);
      }

      .cls-3 {
        fill: url(#radial-gradient-5);
      }

      .cls-4 {
        fill: url(#radial-gradient-4);
      }

      .cls-5 {
        fill: url(#radial-gradient-9);
      }

      .cls-6 {
        fill: url(#radial-gradient-8);
      }

      .cls-7 {
        fill: url(#radial-gradient-3);
      }

      .cls-8 {
        fill: url(#radial-gradient-2);
      }

      .cls-9 {
        fill: url(#radial-gradient);
      }

      .cls-10 {
        fill: #866748;
      }

      .cls-11 {
        fill: url(#radial-gradient-16);
      }

      .cls-12 {
        fill: url(#radial-gradient-12);
      }

      .cls-13 {
        fill: url(#radial-gradient-14);
      }

      .cls-14 {
        fill: url(#radial-gradient-13);
      }

      .cls-15 {
        fill: url(#radial-gradient-10);
      }

      .cls-16 {
        fill: url(#radial-gradient-11);
      }

      .cls-17 {
        fill: url(#radial-gradient-15);
      }
    </style>
    <radialGradient id="radial-gradient" cx="60.45" cy="238.32" fx="60.45" fy="238.32" r="53.5" gradientTransform="translate(312.39 664.9) scale(1.64 -1.63)" gradientUnits="userSpaceOnUse">
      <stop offset=".12" stop-color="#e5d5b0"/>
      <stop offset=".74" stop-color="#e5d5b0"/>
    </radialGradient>
    <radialGradient id="radial-gradient-2" cx="126.99" cy="171.79" fx="126.99" fy="171.79" r="53.5" gradientTransform="translate(312.39 664.9) scale(1.64 -1.63)" gradientUnits="userSpaceOnUse">
      <stop offset=".09" stop-color="#866748"/>
      <stop offset=".87" stop-color="#866748"/>
    </radialGradient>
    <radialGradient id="radial-gradient-3" cx="-22.7" cy="171.79" fx="-22.7" fy="171.79" r="53.5" xlink:href="#radial-gradient"/>
    <radialGradient id="radial-gradient-4" cx="43.83" cy="238.32" fx="43.83" fy="238.32" r="53.5" xlink:href="#radial-gradient-2"/>
    <radialGradient id="radial-gradient-5" cx="60.45" cy="88.63" fx="60.45" fy="88.63" r="53.5" xlink:href="#radial-gradient-2"/>
    <radialGradient id="radial-gradient-6" cx="126.99" cy="155.16" fx="126.99" fy="155.16" r="53.5" xlink:href="#radial-gradient"/>
    <radialGradient id="radial-gradient-7" cx="-22.7" cy="155.16" fx="-22.7" fy="155.16" r="53.5" xlink:href="#radial-gradient-2"/>
    <radialGradient id="radial-gradient-8" cx="43.83" cy="88.63" fx="43.83" fy="88.63" r="53.5" xlink:href="#radial-gradient"/>
    <radialGradient id="radial-gradient-9" cx="90.1" cy="201.51" fx="90.1" fy="201.51" r="38.49" xlink:href="#radial-gradient-2"/>
    <radialGradient id="radial-gradient-10" cx="90.18" cy="201.43" fx="90.18" fy="201.43" r="38.49" xlink:href="#radial-gradient"/>
    <radialGradient id="radial-gradient-11" cx="14.11" cy="201.43" fx="14.11" fy="201.43" r="38.49" xlink:href="#radial-gradient-2"/>
    <radialGradient id="radial-gradient-12" cx="14.19" cy="201.51" fx="14.19" fy="201.51" r="38.49" xlink:href="#radial-gradient"/>
    <radialGradient id="radial-gradient-13" cx="90.1" cy="125.44" fx="90.1" fy="125.44" r="38.49" xlink:href="#radial-gradient"/>
    <radialGradient id="radial-gradient-14" cx="90.09" cy="125.52" fx="90.09" fy="125.52" r="38.53" xlink:href="#radial-gradient-2"/>
    <radialGradient id="radial-gradient-15" cx="14.2" cy="125.52" fx="14.2" fy="125.52" r="38.53" xlink:href="#radial-gradient"/>
    <radialGradient id="radial-gradient-16" cx="14.19" cy="125.44" fx="14.19" fy="125.44" r="38.49" xlink:href="#radial-gradient-2"/>
  </defs>
  <g id="Layer_5" data-name="Layer 5">
    <g>
      <polygon class="cls-9" points="399.01 399.31 399.01 399.31 426.2 348.42 399.01 154.6 399.01 399.31"/>
      <path class="cls-10" d="M398,154.6v244.71l1.9.48,27.34-51.18-27.23-194.14-2.01.14ZM400.02,169.09c3.45,24.56,25.05,178.55,25.13,179.15-.29.53-21.86,40.92-25.13,47.04v-226.19Z"/>
      <polygon class="cls-8" points="399.01 399.31 644.45 399.31 450.06 372.21 399.01 399.31"/>
      <path class="cls-10" d="M449.58,371.32l-51.05,27.1.48,1.9h245.44l.14-2-194.73-27.14-.29.15ZM450.24,373.26c.6.08,155.04,21.61,179.68,25.04h-226.87c6.14-3.26,46.64-24.76,47.18-25.04Z"/>
      <polygon class="cls-7" points="399.01 399.31 399.01 399.31 347.97 372.21 153.57 399.31 399.01 399.31"/>
      <path class="cls-10" d="M347.83,371.22l-194.4,27.1.14,2h245.44l.48-1.9-51.33-27.25-.33.05ZM347.78,373.26c.54.28,41.04,21.78,47.18,25.04h-226.86c24.64-3.43,179.09-24.96,179.68-25.04Z"/>
      <polygon class="cls-4" points="399.01 399.31 399.01 154.6 371.83 348.42 399.01 399.31"/>
      <path class="cls-10" d="M370.82,348.28l-.04.33,27.34,51.18,1.9-.48v-244.71l-2.01-.14-27.19,193.82ZM398,169.09v226.18c-3.27-6.12-24.84-46.51-25.13-47.04.08-.6,21.68-154.59,25.13-179.15Z"/>
      <polygon class="cls-3" points="399.01 399.31 399.01 644.03 426.2 450.21 399.01 399.32 399.01 399.31"/>
      <path class="cls-10" d="M398,399.31v244.72l2.01.14,27.23-194.15-27.34-51.18-1.9.46ZM400.02,403.36c3.27,6.12,24.84,46.5,25.13,47.03-.08.6-21.68,154.6-25.13,179.16v-226.18Z"/>
      <polygon class="cls-2" points="399.01 399.31 399.01 399.31 450.06 426.41 644.45 399.31 399.01 399.31"/>
      <path class="cls-10" d="M399.01,398.3l-.48,1.9,51.33,27.26,194.73-27.15-.14-2.01h-245.44ZM629.93,400.32c-24.63,3.44-179.09,24.97-179.68,25.05-.54-.28-41.04-21.79-47.18-25.05h226.87Z"/>
      <polygon class="cls-1" points="399.01 399.31 153.57 399.31 347.97 426.41 399.01 399.31"/>
      <path class="cls-10" d="M153.57,398.3l-.14,2.01,194.73,27.15,51.33-27.26-.48-1.9h-245.44ZM394.96,400.32c-6.14,3.26-46.65,24.77-47.18,25.05-.6-.08-155.05-21.62-179.68-25.05h226.87Z"/>
      <polygon class="cls-6" points="371.83 450.21 399.01 644.03 399.01 399.31 399.01 399.32 371.83 450.21"/>
      <path class="cls-10" d="M370.94,449.74l-.16.29,27.23,194.15,2.01-.14v-244.72l-1.9-.46-27.18,50.88ZM398,403.36v226.18c-3.45-24.56-25.05-178.56-25.13-179.16.28-.53,21.86-40.91,25.13-47.03Z"/>
      <polygon class="cls-5" points="399.01 399.31 399.01 399.31 523.48 275.21 426.2 348.42 399.01 399.31"/>
      <path class="cls-10" d="M425.59,347.61l-.18.14-27.29,51.09,1.61,1.19,124.47-124.11-1.32-1.52-97.29,73.21ZM512.49,284.75c-16.58,16.53-101.29,100.99-109.4,109.07,4.95-9.26,23.71-44.38,23.9-44.73.32-.24,67.54-50.83,85.5-64.34Z"/>
      <polygon class="cls-15" points="450.06 372.21 523.48 275.21 399.01 399.31 450.06 372.21"/>
      <path class="cls-10" d="M398.3,398.6l1.19,1.6,51.24-27.2,73.56-97.18-1.52-1.32-124.47,124.1ZM513.93,286.17c-13.56,17.91-64.31,84.95-64.55,85.26-.34.18-35.58,18.89-44.86,23.82,8.1-8.07,92.83-92.55,109.4-109.07Z"/>
      <polygon class="cls-16" points="274.54 275.21 347.97 372.21 399.01 399.31 274.54 275.21"/>
      <path class="cls-10" d="M273.73,275.82l73.56,97.18,51.24,27.2,1.19-1.6-124.47-124.1-1.53,1.32ZM284.1,286.17c16.58,16.53,101.3,101,109.4,109.07-9.29-4.93-44.52-23.63-44.86-23.82-.24-.31-50.99-67.35-64.54-85.26Z"/>
      <polygon class="cls-12" points="399.01 399.31 371.83 348.42 274.54 275.21 399.01 399.31"/>
      <path class="cls-10" d="M273.82,275.92l124.47,124.11,1.61-1.19-27.29-51.09-97.47-73.34-1.32,1.52ZM285.53,284.75c17.96,13.52,85.19,64.11,85.5,64.34.19.34,18.95,35.47,23.9,44.73-8.1-8.08-92.82-92.54-109.4-109.07Z"/>
      <polygon class="cls-14" points="426.2 450.21 523.48 523.42 399.01 399.32 426.2 450.21"/>
      <path class="cls-10" d="M398.12,399.8l27.3,51.08,97.46,73.35,1.32-1.52-124.47-124.09-1.61,1.19ZM403.09,404.82c8.11,8.08,92.82,92.53,109.4,109.06-17.97-13.52-85.19-64.1-85.5-64.34-.18-.35-18.95-35.47-23.9-44.72Z"/>
      <polygon class="cls-13" points="399.01 399.31 399.01 399.32 523.48 523.42 450.06 426.41 399.01 399.31"/>
      <path class="cls-10" d="M398.3,400.04l124.47,124.09,1.52-1.32-73.56-97.18-51.24-27.21-1.19,1.62ZM404.5,403.36c9.25,4.91,44.54,23.65,44.88,23.83.24.31,50.99,67.35,64.55,85.26-16.58-16.53-101.37-101.06-109.43-109.1Z"/>
      <polygon class="cls-17" points="399.01 399.31 399.01 399.31 347.97 426.41 274.54 523.42 399.01 399.32 399.01 399.31"/>
      <path class="cls-10" d="M347.49,425.52l-.2.11-73.56,97.18,1.53,1.32,124.47-124.09-1.19-1.62-51.04,27.11ZM393.53,403.36c-8.06,8.03-92.85,92.57-109.43,109.1,13.55-17.91,64.31-84.95,64.55-85.26.34-.18,35.63-18.92,44.88-23.83Z"/>
      <polygon class="cls-11" points="274.54 523.42 371.83 450.21 399.01 399.32 274.54 523.42"/>
      <path class="cls-10" d="M273.82,522.7l1.32,1.52,97.47-73.34,27.29-51.08-1.61-1.19-124.47,124.09ZM394.93,404.82c-4.94,9.26-23.71,44.38-23.9,44.72-.31.24-67.54,50.82-85.5,64.34,16.59-16.53,101.29-100.98,109.4-109.06Z"/>
    </g>
  </g>
</svg>