<?xml version="1.0" encoding="UTF-8"?>
<svg id="Layer_1" data-name="Layer 1" xmlns="http://www.w3.org/2000/svg" viewBox="0 0 200 200">
  <defs>
    <style>
      .cls-1 {
        fill: #231f20;
        font-family: ArialUnicodeMS, 'Arial Unicode MS';
        font-size: 4.56px;
      }
    </style>
  </defs>
  <text class="cls-1" transform="translate(86.15 22.44) rotate(-9.19)"><tspan x="0" y="0">ว</tspan></text>
  <text class="cls-1" transform="translate(88.48 22.07) rotate(-8.34)"><tspan x="0" y="0">ั</tspan></text>
  <text class="cls-1" transform="translate(88.44 22.06) rotate(-7.28)"><tspan x="0" y="0">น</tspan></text>
  <text class="cls-1" transform="translate(91.39 21.7) rotate(-5.7)"><tspan x="0" y="0">เ</tspan></text>
  <text class="cls-1" transform="translate(92.75 21.55) rotate(-4.23)"><tspan x="0" y="0">ก</tspan></text>
  <text class="cls-1" transform="translate(95.44 21.37) rotate(-3.26)"><tspan x="0" y="0">ิ</tspan></text>
  <text class="cls-1" transform="translate(95.43 21.35) rotate(-2.28)"><tspan x="0" y="0">ด</tspan></text>
  <text class="cls-1" transform="translate(98.11 21.25) rotate(-.4)"><tspan x="0" y="0">แ</tspan></text>
  <text class="cls-1" transform="translate(100.69 21.22) rotate(1.73)"><tspan x="0" y="0">ล</tspan></text>
  <text class="cls-1" transform="translate(103.27 21.3) rotate(3.09)"><tspan x="0" y="0">ะ</tspan></text>
  <text class="cls-1" transform="translate(105.3 21.4) rotate(4.81)"><tspan x="0" y="0">ป</tspan></text>
  <text class="cls-1" transform="translate(108.06 21.65) rotate(5.81)"><tspan x="0" y="0">ี</tspan></text>
  <text class="cls-1" transform="translate(108.02 21.64) rotate(6.28)"><tspan x="0" y="0">เ</tspan></text>
  <text class="cls-1" transform="translate(109.37 21.78) rotate(7.75)"><tspan x="0" y="0">ก</tspan></text>
  <text class="cls-1" transform="translate(112.07 22.16) rotate(8.74)"><tspan x="0" y="0">ิ</tspan></text>
  <text class="cls-1" transform="translate(112.04 22.14) rotate(9.71)"><tspan x="0" y="0">ด</tspan></text>
</svg>