<?xml version="1.0" encoding="UTF-8"?>
<svg id="Layer_1" data-name="Layer 1" xmlns="http://www.w3.org/2000/svg" viewBox="0 0 200 200">
  <defs>
    <style>
      .cls-1, .cls-2 {
        font-family: ArialUnicodeMS, 'Arial Unicode MS';
      }

      .cls-3, .cls-4, .cls-2 {
        fill: #231f20;
        font-size: 4.56px;
      }

      .cls-3, .cls-5 {
        font-family: MyriadPro-Regular, 'Myriad Pro';
      }
    </style>
  </defs>
  <text class="cls-2" transform="translate(81.35 23.45) rotate(-12.78)"><tspan x="0" y="0">ว</tspan></text>
  <text class="cls-2" transform="translate(83.64 22.94) rotate(-11.93)"><tspan x="0" y="0">ั</tspan></text>
  <text class="cls-2" transform="translate(83.62 22.93) rotate(-10.86)"><tspan x="0" y="0">น</tspan></text>
  <text class="cls-3" transform="translate(86.54 22.38) rotate(-9.42)"><tspan x="0" y="0"> </tspan></text>
  <text class="cls-2" transform="translate(87.46 22.23) rotate(-8.59)"><tspan x="0" y="0">เ</tspan></text>
  <text class="cls-2" transform="translate(88.81 22.01) rotate(-7.1)"><tspan x="0" y="0">ด</tspan></text>
  <text class="cls-2" transform="translate(91.52 21.69) rotate(-6.11)"><tspan x="0" y="0">ื</tspan></text>
  <text class="cls-2" transform="translate(91.51 21.68) rotate(-5.18)"><tspan x="0" y="0">อ</tspan></text>
  <text class="cls-2" transform="translate(94.05 21.44) rotate(-3.19)"><tspan x="0" y="0">น</tspan></text>
  <text class="cls-3" transform="translate(96.97 21.29) rotate(-1.81)"><tspan x="0" y="0"> </tspan></text>
  <text class="cls-2" transform="translate(97.93 21.25) rotate(-.47)"><tspan x="0" y="0">ป</tspan></text>
  <text class="cls-2" transform="translate(100.72 21.24) rotate(-.13)"><tspan x="0" y="0">ี</tspan></text>
  <text class="cls-4" transform="translate(100.68 21.23) rotate(1.73)"><tspan class="cls-5" x="0" y="0"> </tspan><tspan class="cls-1" x=".97" y="0">เ</tspan></text>
  <text class="cls-2" transform="translate(103 21.28) rotate(3.22)"><tspan x="0" y="0">ห</tspan></text>
  <text class="cls-2" transform="translate(105.96 21.45) rotate(5.24)"><tspan x="0" y="0">ม</tspan></text>
  <text class="cls-2" transform="translate(108.59 21.7) rotate(6.19)"><tspan x="0" y="0">ื</tspan></text>
  <text class="cls-2" transform="translate(108.54 21.69) rotate(7.09)"><tspan x="0" y="0">อ</tspan></text>
  <text class="cls-2" transform="translate(111.09 22) rotate(9.1)"><tspan x="0" y="0">น</tspan></text>
  <text class="cls-2" transform="translate(113.99 22.47) rotate(11.15)"><tspan x="0" y="0">ก</tspan></text>
  <text class="cls-2" transform="translate(116.65 23) rotate(12.14)"><tspan x="0" y="0">ั</tspan></text>
  <text class="cls-2" transform="translate(116.63 22.98) rotate(13.21)"><tspan x="0" y="0">น</tspan></text>
</svg>