<?xml version="1.0" encoding="UTF-8"?>
<svg id="Layer_1" data-name="Layer 1" xmlns="http://www.w3.org/2000/svg" viewBox="0 0 200 200">
  <defs>
    <style>
      .cls-1 {
        fill: #231f20;
        font-family: ArialUnicodeMS, 'Arial Unicode MS';
        font-size: 4.56px;
      }
    </style>
  </defs>
  <text class="cls-1" transform="translate(82.81 23.11) rotate(-11.69)"><tspan x="0" y="0">ว</tspan></text>
  <text class="cls-1" transform="translate(85.11 22.64) rotate(-10.83)"><tspan x="0" y="0">ั</tspan></text>
  <text class="cls-1" transform="translate(85.1 22.63) rotate(-9.76)"><tspan x="0" y="0">น</tspan></text>
  <text class="cls-1" transform="translate(88.01 22.14) rotate(-8.18)"><tspan x="0" y="0">เ</tspan></text>
  <text class="cls-1" transform="translate(89.34 21.94) rotate(-6.72)"><tspan x="0" y="0">ก</tspan></text>
  <text class="cls-1" transform="translate(92.05 21.63) rotate(-5.72)"><tspan x="0" y="0">ิ</tspan></text>
  <text class="cls-1" transform="translate(92.02 21.62) rotate(-4.75)"><tspan x="0" y="0">ด</tspan></text>
  <text class="cls-1" transform="translate(94.71 21.4) rotate(-2.85)"><tspan x="0" y="0">แ</tspan></text>
  <text class="cls-1" transform="translate(97.29 21.27) rotate(-.99)"><tspan x="0" y="0">ล</tspan></text>
  <text class="cls-1" transform="translate(99.88 21.24) rotate(-.13)"><tspan x="0" y="0">ะ</tspan></text>
  <text class="cls-1" transform="translate(101.9 21.26) rotate(1.86)"><tspan x="0" y="0">เ</tspan></text>
  <text class="cls-1" transform="translate(103.25 21.29) rotate(3.32)"><tspan x="0" y="0">ด</tspan></text>
  <text class="cls-1" transform="translate(105.96 21.46) rotate(4.29)"><tspan x="0" y="0">ื</tspan></text>
  <text class="cls-1" transform="translate(105.96 21.45) rotate(5.22)"><tspan x="0" y="0">อ</tspan></text>
  <text class="cls-1" transform="translate(108.5 21.68) rotate(7.21)"><tspan x="0" y="0">น</tspan></text>
  <text class="cls-1" transform="translate(111.42 22.06) rotate(8.77)"><tspan x="0" y="0">เ</tspan></text>
  <text class="cls-1" transform="translate(112.78 22.26) rotate(10.25)"><tspan x="0" y="0">ก</tspan></text>
  <text class="cls-1" transform="translate(115.41 22.75) rotate(11.22)"><tspan x="0" y="0">ิ</tspan></text>
  <text class="cls-1" transform="translate(115.4 22.73) rotate(12.21)"><tspan x="0" y="0">ด</tspan></text>
</svg>