<?xml version="1.0" encoding="UTF-8"?>
<svg id="Layer_1" data-name="Layer 1" xmlns="http://www.w3.org/2000/svg" viewBox="0 0 200 200">
  <defs>
    <style>
      .cls-1 {
        fill: #b09b89;
      }

      .cls-2 {
        fill: #412d2f;
      }

      .cls-3 {
        fill: #fcf7bc;
      }
    </style>
  </defs>
  <path class="cls-2" d="M117.37,100c0,9.59-7.78,17.37-17.37,17.37s-17.37-7.78-17.37-17.37,7.78-17.37,17.37-17.37,17.37,7.78,17.37,17.37Z"/>
  <path class="cls-3" d="M100.2,84.48c-.07,0-.13,0-.2,0s-.13,0-.2,0c-8.48.11-15.32,7.01-15.32,15.52s6.84,15.41,15.32,15.52c-4.19-.11-7.56-3.54-7.56-7.76s3.47-7.76,7.76-7.76,7.76-3.47,7.76-7.76-3.37-7.65-7.56-7.76Z"/>
  <path class="cls-1" d="M100,90.47c.98,0,1.77.8,1.77,1.77s-.79,1.77-1.77,1.77-1.77-.79-1.77-1.77.79-1.77,1.77-1.77Z"/>
  <path class="cls-1" d="M115.52,100c0,8.5-6.84,15.41-15.32,15.52-.07,0-.33,0-.4,0-4.19-.11-7.56-3.54-7.56-7.76s3.47-7.76,7.76-7.76,7.76-3.47,7.76-7.76-3.37-7.65-7.56-7.76c8.48.11,15.32,7.01,15.32,15.52Z"/>
  <path class="cls-3" d="M101.61,107.76c0,.89-.72,1.61-1.61,1.61s-1.61-.72-1.61-1.61.72-1.61,1.61-1.61,1.61.72,1.61,1.61Z"/>
</svg>