<?xml version="1.0" encoding="UTF-8"?>
<svg id="Layer_1" data-name="Layer 1" xmlns="http://www.w3.org/2000/svg" viewBox="0 0 200 200">
  <defs>
    <style>
      .cls-1 {
        fill: #231f20;
        font-family: ArialUnicodeMS, 'Arial Unicode MS';
        font-size: 4.56px;
      }
    </style>
  </defs>
  <text class="cls-1" transform="translate(84.05 22.85) rotate(-11.12)"><tspan x="0" y="0">เ</tspan></text>
  <text class="cls-1" transform="translate(85.37 22.58) rotate(-9.64)"><tspan x="0" y="0">ด</tspan></text>
  <text class="cls-1" transform="translate(88.05 22.14) rotate(-8.65)"><tspan x="0" y="0">ื</tspan></text>
  <text class="cls-1" transform="translate(88.06 22.12) rotate(-7.71)"><tspan x="0" y="0">อ</tspan></text>
  <text class="cls-1" transform="translate(90.57 21.78) rotate(-5.72)"><tspan x="0" y="0">น</tspan></text>
  <text class="cls-1" transform="translate(93.5 21.5) rotate(-4.16)"><tspan x="0" y="0">เ</tspan></text>
  <text class="cls-1" transform="translate(94.87 21.39) rotate(-2.69)"><tspan x="0" y="0">ก</tspan></text>
  <text class="cls-1" transform="translate(97.58 21.27) rotate(-1.72)"><tspan x="0" y="0">ิ</tspan></text>
  <text class="cls-1" transform="translate(97.54 21.26) rotate(-.77)"><tspan x="0" y="0">ด</tspan></text>
  <text class="cls-1" transform="translate(100.24 21.21) rotate(1.73)"><tspan x="0" y="0">แ</tspan></text>
  <text class="cls-1" transform="translate(102.81 21.28) rotate(2.95)"><tspan x="0" y="0">ล</tspan></text>
  <text class="cls-1" transform="translate(105.41 21.41) rotate(4.63)"><tspan x="0" y="0">ะ</tspan></text>
  <text class="cls-1" transform="translate(107.43 21.57) rotate(6.35)"><tspan x="0" y="0">ป</tspan></text>
  <text class="cls-1" transform="translate(110.16 21.89) rotate(7.34)"><tspan x="0" y="0">ี</tspan></text>
  <text class="cls-1" transform="translate(110.16 21.89) rotate(7.84)"><tspan x="0" y="0">เ</tspan></text>
  <text class="cls-1" transform="translate(111.49 22.06) rotate(9.31)"><tspan x="0" y="0">ก</tspan></text>
  <text class="cls-1" transform="translate(114.17 22.51) rotate(10.3)"><tspan x="0" y="0">ิ</tspan></text>
  <text class="cls-1" transform="translate(114.17 22.5) rotate(11.29)"><tspan x="0" y="0">ด</tspan></text>
</svg>